<svg width="107" height="51" viewBox="0 0 107 51" fill="none" xmlns="http://www.w3.org/2000/svg">
<path d="M91.4475 0.542969C93.1802 2.50339 96.1791 5.66197 96.2674 10.1456C96.6123 14.6439 93.5626 19.5093 89.7121 24.611C86.1156 29.6512 81.7369 35.0104 82.9763 40.3683C84.1462 45.5427 88.696 48.1336 91.2911 49.1507C89.1826 47.5166 85.677 44.5243 85.2906 40.1429C84.697 35.7726 88.7749 31.0871 92.4904 25.9274C96.3476 20.8651 99.6045 15.0971 98.5844 9.99533C97.821 4.86648 93.7739 1.92462 91.4475 0.542969Z" fill="#58256F"/>
<path d="M99.5571 6.09375C100.454 7.93349 101.417 10.9209 100.572 14.5474C99.878 18.1444 97.2361 22.1108 94.4231 26.3567C91.7183 30.6199 88.071 34.3326 87.5696 38.6069C87.1311 42.8799 90.5511 45.6395 92.6596 46.4165C90.9375 45.0903 88.6192 42.3036 89.4414 38.783C90.1647 35.3621 93.9177 31.6912 96.7093 27.3677C99.5598 23.0664 102.136 18.7675 102.448 14.7248C102.89 10.7103 101.108 7.58992 99.5571 6.09498" fill="#58256F"/>
<path d="M104.179 11.8125C105.168 14.8443 103.106 21.3535 98.4243 27.8566C96.1781 31.1962 93.6859 34.1122 92.3249 37.1132C91.1162 40.278 92.8075 42.9698 94.3839 43.8343C93.238 42.5893 92.3703 40.1203 93.7234 37.5085C95.2221 34.9742 97.9309 32.0373 100.221 28.6558C105.091 21.9902 106.427 14.6214 104.179 11.8125Z" fill="#58256F"/>
<path d="M106.375 17.293C106.822 19.6524 105.386 24.4475 101.812 29.404C98.3535 34.0489 94.2369 38.9511 96.2638 41.382C95.3065 38.8157 99.4592 35.0586 103.176 30C106.861 24.9598 107.775 19.4763 106.375 17.293Z" fill="#58256F"/>
<path d="M89.3265 22.7622C86.1471 18.3303 83.8314 14.0991 84.1416 10.1475C84.2285 5.66516 87.2287 2.50534 88.9588 0.544922C86.6258 1.92657 82.5854 4.86843 81.8193 9.99728C80.8352 14.8971 83.8087 20.4052 87.4587 25.3235C87.583 25.1474 87.7007 24.9799 87.8224 24.81C88.3398 24.1253 88.8425 23.4419 89.3265 22.7634" fill="#251F52"/>
<path d="M85.9742 26.3567C83.1651 22.1108 80.5206 18.1444 79.824 14.5462C78.979 10.9197 79.943 7.93349 80.8361 6.09375C79.2879 7.58746 77.507 10.7091 77.9469 14.7235C78.2624 18.7675 80.8361 23.0676 83.6892 27.3677C84.0489 27.9305 84.4313 28.4834 84.8177 29.0252C85.3057 28.3085 85.8124 27.5955 86.3218 26.8899C86.2041 26.7126 86.0865 26.534 85.9742 26.358" fill="#251F52"/>
<path d="M81.9734 27.8566C77.2939 21.3548 75.2323 14.8443 76.223 11.8125C73.9742 14.6214 75.3139 21.9902 80.1778 28.6558C81.0295 29.9119 81.9413 31.1039 82.8237 32.2442C83.1366 31.663 83.4802 31.0817 83.8425 30.5079C83.2182 29.6459 82.5858 28.7704 81.9721 27.8566" fill="#251F52"/>
<path d="M78.5873 29.404C75.0162 24.4475 73.5762 19.6524 74.0268 17.293C72.623 19.4763 73.5428 24.9585 77.2262 29.9987C78.6822 31.9764 80.1957 33.7533 81.4485 35.3431C81.5955 34.8862 81.7747 34.4331 81.9726 33.9799C80.9364 32.4924 79.7277 30.9346 78.5886 29.404" fill="#251F52"/>
<path d="M2.97728 47.7336C2.97728 46.7509 2.3168 46.2805 1.70981 46.2805C1.10281 46.2805 0.618819 46.6216 0.618819 47.5649C0.618819 48.5081 1.25122 49.0647 1.9625 49.0647C2.31413 49.0647 2.97728 48.9194 2.97728 47.7336ZM2.48927 49.1632C2.31413 49.2236 2.03202 49.2667 1.79938 49.2667C0.507848 49.2667 0.0078125 48.385 0.0078125 47.6548C0.0078125 46.9947 0.522555 46.0859 1.81275 46.0859C2.86497 46.0859 3.59497 46.6746 3.59497 47.6227C3.59497 48.3382 3.10696 48.7864 2.82753 48.9576L3.71262 49.3775C4.64183 49.8134 5.22744 49.8553 5.52826 49.8553C5.75689 49.8553 6.08178 49.8245 6.38661 49.7174C6.41335 49.7088 6.43608 49.6977 6.45346 49.6977C6.47352 49.6977 6.49357 49.71 6.49357 49.7309C6.49357 49.7568 6.47218 49.7679 6.44143 49.7814C6.17804 49.9009 5.68068 50.0856 5.04427 50.0856C4.40786 50.0856 3.90782 49.9267 3.18317 49.5339L2.48927 49.162V49.1632Z" fill="#58256F"/>
<path d="M5.48764 48.1531C5.50502 48.1531 5.5077 48.1445 5.50502 48.1309L5.14002 47.2554C5.13468 47.2443 5.13067 47.2246 5.12131 47.2246C5.10927 47.2246 5.10393 47.2456 5.09991 47.2554L4.72556 48.1285C4.7162 48.1445 4.72556 48.1531 4.74026 48.1531H5.48764ZM4.65871 48.3428C4.63731 48.3428 4.63197 48.3464 4.62261 48.3698L4.41671 48.8304C4.3766 48.9154 4.36189 49.0016 4.36189 49.041C4.36189 49.1001 4.39666 49.1382 4.51565 49.1382H4.57314C4.61993 49.1382 4.62929 49.153 4.62929 49.1764C4.62929 49.2035 4.6079 49.2084 4.56779 49.2084C4.43944 49.2084 4.25761 49.1974 4.13728 49.1974C4.09583 49.1974 3.8886 49.2084 3.68805 49.2084C3.63858 49.2084 3.61719 49.2035 3.61719 49.1764C3.61719 49.1518 3.63056 49.1382 3.65997 49.1382C3.69607 49.1382 3.74019 49.1333 3.77629 49.1333C3.95144 49.1112 4.01829 49.004 4.09717 48.8304L5.11061 46.6619C5.15473 46.5621 5.18548 46.5215 5.22292 46.5215C5.28308 46.5215 5.29779 46.5535 5.34057 46.6311C5.43149 46.8232 6.07993 48.2344 6.32594 48.7602C6.47434 49.0693 6.58531 49.1136 6.65618 49.1272C6.715 49.1333 6.75779 49.1382 6.80325 49.1382C6.83667 49.1382 6.85405 49.1481 6.85405 49.1764C6.85405 49.2047 6.834 49.2084 6.68826 49.2084C6.55189 49.2084 6.26978 49.2084 5.94356 49.2035C5.8727 49.1974 5.82724 49.1974 5.82724 49.1764C5.82724 49.1518 5.8366 49.1419 5.87671 49.1382C5.90211 49.1333 5.93019 49.1001 5.91013 49.0607L5.61332 48.3698C5.60396 48.3452 5.59059 48.3428 5.57054 48.3428H4.66004H4.65871Z" fill="#58256F"/>
<path d="M7.49991 46.815L6.925 46.8286C6.70039 46.8298 6.60814 46.8544 6.55065 46.9308C6.51187 46.98 6.49583 47.0268 6.48647 47.0502C6.47577 47.0761 6.46775 47.0946 6.44101 47.0946C6.41427 47.0946 6.40625 47.0761 6.40625 47.0367C6.40625 46.9788 6.47978 46.6476 6.48781 46.6192C6.49583 46.5712 6.51187 46.5527 6.53193 46.5527C6.56268 46.5527 6.60413 46.5811 6.69905 46.5909C6.81403 46.6069 6.95709 46.6106 7.08812 46.6106H8.66042C8.78209 46.6106 8.86498 46.602 8.92381 46.5909C8.98665 46.5872 9.01339 46.5761 9.02943 46.5761C9.05617 46.5761 9.06018 46.5983 9.06018 46.65C9.06018 46.7227 9.05082 46.9788 9.05082 47.0699C9.04548 47.1056 9.03745 47.1253 9.01473 47.1253C8.98665 47.1253 8.97729 47.1081 8.97194 47.0564L8.96793 47.0207C8.95857 46.9308 8.85562 46.8286 8.50934 46.8236L8.02134 46.8163V48.2102C8.02134 48.5267 8.02535 48.8001 8.04273 48.9466C8.0561 49.0464 8.07749 49.1116 8.19114 49.1289C8.24595 49.1338 8.33286 49.1399 8.38901 49.1399C8.43313 49.1399 8.45051 49.1609 8.45051 49.1781C8.45051 49.2003 8.41976 49.2114 8.37564 49.2114C8.12028 49.2114 7.86224 49.2003 7.75127 49.2003C7.66302 49.2003 7.39696 49.2114 7.24321 49.2114C7.19641 49.2114 7.16834 49.2003 7.16834 49.1781C7.16834 49.1596 7.18171 49.1399 7.23118 49.1399C7.28867 49.1399 7.33546 49.135 7.36889 49.1289C7.44777 49.1128 7.46916 49.0464 7.48253 48.9441C7.49857 48.8001 7.49857 48.5279 7.49857 48.2115V46.8175L7.49991 46.815Z" fill="#58256F"/>
<path d="M10.5073 48.1531C10.5233 48.1531 10.53 48.1445 10.5233 48.1309L10.1583 47.2554C10.1543 47.2443 10.1476 47.2246 10.1409 47.2246C10.1262 47.2246 10.1236 47.2456 10.1182 47.2554L9.74385 48.1285C9.73717 48.1445 9.74385 48.1531 9.75722 48.1531H10.5073ZM9.67968 48.3428C9.65561 48.3428 9.65294 48.3464 9.64492 48.3698L9.43635 48.8304C9.39624 48.9154 9.37886 49.0016 9.37886 49.041C9.37886 49.1001 9.41362 49.1382 9.53261 49.1382H9.59144C9.63957 49.1382 9.64759 49.153 9.64759 49.1764C9.64759 49.2035 9.6262 49.2084 9.58475 49.2084C9.45907 49.2084 9.27858 49.1974 9.15424 49.1974C9.11547 49.1974 8.90957 49.2084 8.70501 49.2084C8.65688 49.2084 8.63281 49.2035 8.63281 49.1764C8.63281 49.1518 8.64618 49.1382 8.67693 49.1382C8.71303 49.1382 8.75582 49.1333 8.79058 49.1333C8.9684 49.1112 9.03257 49.004 9.11413 48.8304L10.1249 46.6619C10.1704 46.5621 10.2024 46.5215 10.2399 46.5215C10.2987 46.5215 10.3148 46.5535 10.3535 46.6311C10.4471 46.8232 11.0942 48.2344 11.3402 48.7602C11.49 49.0693 11.5996 49.1136 11.6718 49.1272C11.728 49.1333 11.7721 49.1382 11.8149 49.1382C11.851 49.1382 11.8683 49.1481 11.8683 49.1764C11.8683 49.2047 11.8469 49.2084 11.7012 49.2084C11.5648 49.2084 11.2827 49.2084 10.9565 49.2035C10.8883 49.1974 10.8429 49.1974 10.8429 49.1764C10.8429 49.1518 10.8495 49.1419 10.8923 49.1382C10.9191 49.1333 10.9445 49.1001 10.9271 49.0607L10.6263 48.3698C10.6169 48.3452 10.6049 48.3428 10.5875 48.3428H9.677H9.67968Z" fill="#58256F"/>
<path d="M12.7874 47.8682C12.7874 47.9064 12.7955 47.9187 12.8235 47.9298C12.9064 47.9544 13.0214 47.9618 13.1177 47.9618C13.2714 47.9618 13.3249 47.9507 13.3904 47.9064C13.5094 47.8288 13.6418 47.6761 13.6418 47.3953C13.6418 46.9077 13.2808 46.7833 13.0508 46.7833C12.9532 46.7833 12.8623 46.7882 12.8235 46.7932C12.7955 46.8018 12.7874 46.8153 12.7874 46.8412V47.8682ZM12.2941 47.5997C12.2941 47.0764 12.2941 46.9791 12.2901 46.8695C12.2821 46.7525 12.2446 46.7168 12.1229 46.6836C12.0909 46.6749 12.0267 46.6725 11.9665 46.6725C11.9291 46.6725 11.9023 46.6614 11.9023 46.6368C11.9023 46.6121 11.9331 46.6035 11.9906 46.6035C12.1925 46.6035 12.4385 46.6121 12.5187 46.6121C12.6497 46.6121 13 46.6035 13.1217 46.6035C13.369 46.6035 13.6511 46.6232 13.857 46.7488C13.9653 46.819 14.1311 46.9963 14.1311 47.2254C14.1311 47.4803 13.9707 47.7093 13.5923 47.9864C13.9359 48.3804 14.2087 48.6895 14.444 48.9038C14.6579 49.1008 14.7956 49.1218 14.8558 49.1292C14.8972 49.1402 14.9186 49.1402 14.9494 49.1402C14.9801 49.1402 14.9988 49.1599 14.9988 49.1784C14.9988 49.2055 14.9721 49.2117 14.924 49.2117H14.5549C14.3383 49.2117 14.2327 49.1932 14.1325 49.1439C13.964 49.0676 13.8196 48.9038 13.603 48.6354C13.4479 48.4519 13.2861 48.2191 13.2367 48.165C13.2139 48.1452 13.1925 48.144 13.1671 48.144L12.8182 48.1342C12.7995 48.1342 12.7874 48.144 12.7874 48.1637V48.2105C12.7874 48.5319 12.7914 48.8004 12.8088 48.9444C12.8235 49.0479 12.8423 49.1131 12.9599 49.1292C13.0174 49.1341 13.1003 49.1402 13.1484 49.1402C13.1792 49.1402 13.1939 49.1599 13.1939 49.1784C13.1939 49.1993 13.1658 49.2117 13.1177 49.2117C12.8917 49.2117 12.5722 49.1993 12.5147 49.1993C12.4385 49.1993 12.1938 49.2117 12.0374 49.2117C11.9906 49.2117 11.9638 49.1993 11.9638 49.1784C11.9638 49.1599 11.9772 49.1402 12.0267 49.1402C12.0815 49.1402 12.1256 49.1341 12.1617 49.1292C12.2419 49.1131 12.2633 49.0466 12.2754 48.9444C12.2941 48.8004 12.2941 48.5282 12.2941 48.2105V47.6022V47.5997Z" fill="#58256F"/>
<path d="M17.2721 47.7688C17.2721 48.1985 17.2774 48.5101 17.2828 48.5889C17.2854 48.6886 17.2961 48.85 17.3322 48.8955C17.3897 48.9719 17.5609 49.0581 17.9058 49.0581C18.3564 49.0581 18.6545 48.9756 18.9206 48.7625C19.2027 48.5409 19.2896 48.1714 19.2896 47.754C19.2896 47.2405 19.057 46.9068 18.8671 46.743C18.462 46.3822 17.9606 46.3366 17.6157 46.3366C17.5274 46.3366 17.3657 46.3477 17.3309 46.3637C17.2908 46.381 17.2774 46.4007 17.2774 46.445C17.2721 46.5817 17.2721 46.9351 17.2721 47.2553V47.7688ZM16.7226 47.323C16.7226 46.7048 16.7226 46.5903 16.7145 46.4622C16.7038 46.3243 16.6704 46.2591 16.5247 46.2283C16.4899 46.2221 16.4137 46.2196 16.3536 46.2196C16.3041 46.2196 16.2773 46.2086 16.2773 46.1815C16.2773 46.1544 16.3094 46.1445 16.3749 46.1445C16.6089 46.1445 16.887 46.1568 17.01 46.1568C17.1437 46.1568 17.4205 46.1445 17.6865 46.1445C18.2374 46.1445 18.9727 46.1445 19.4527 46.6075C19.6706 46.8181 19.8792 47.1518 19.8792 47.637C19.8792 48.148 19.6466 48.5372 19.3979 48.7674C19.1973 48.9583 18.7387 49.2465 17.9245 49.2465C17.7681 49.2465 17.5849 49.2354 17.4178 49.2243C17.2493 49.2095 17.0983 49.1984 16.9859 49.1984C16.9378 49.1984 16.8402 49.1984 16.7359 49.2046C16.6343 49.2046 16.518 49.2095 16.4311 49.2095C16.3736 49.2095 16.3429 49.1984 16.3429 49.1714C16.3429 49.1492 16.3602 49.1381 16.4137 49.1381C16.4779 49.1381 16.534 49.1283 16.5728 49.1209C16.6597 49.1049 16.6825 49.015 16.6998 48.8992C16.7212 48.728 16.7212 48.4066 16.7212 48.0372V47.323H16.7226Z" fill="#58256F"/>
<path d="M20.5779 47.6C20.5779 47.0766 20.5779 46.9794 20.5739 46.8698C20.5659 46.7528 20.5298 46.7171 20.4081 46.6838C20.376 46.6752 20.3132 46.6727 20.253 46.6727C20.2129 46.6727 20.1875 46.6617 20.1875 46.637C20.1875 46.6124 20.2169 46.6038 20.2757 46.6038C20.4776 46.6038 20.7236 46.6124 20.8359 46.6124C20.9589 46.6124 21.8173 46.6173 21.8908 46.6124C21.9617 46.6087 22.0245 46.5927 22.0539 46.5915C22.0753 46.589 22.0981 46.5742 22.1168 46.5742C22.1382 46.5742 22.1422 46.5915 22.1422 46.6087C22.1422 46.6321 22.1208 46.674 22.1128 46.8316C22.1074 46.871 22.0981 47.0188 22.0887 47.0582C22.0847 47.0779 22.0753 47.1173 22.0459 47.1173C22.0192 47.1173 22.0138 47.0976 22.0138 47.0729C22.0138 47.0495 22.0098 46.9892 21.9871 46.9449C21.9563 46.8858 21.9243 46.8377 21.7331 46.8205C21.6662 46.8131 21.205 46.8045 21.1234 46.8045C21.106 46.8045 21.098 46.818 21.098 46.8377V47.6862C21.098 47.7108 21.1007 47.7256 21.1234 47.7256C21.213 47.7256 21.713 47.7256 21.8026 47.717C21.8962 47.712 21.9537 47.701 21.9858 47.6628C22.0178 47.6394 22.0299 47.6197 22.0486 47.6197C22.0646 47.6197 22.0793 47.6357 22.0793 47.6591C22.0793 47.6776 22.07 47.7354 22.0486 47.9091C22.0406 47.978 22.0299 48.116 22.0299 48.1406C22.0299 48.1652 22.0272 48.2169 21.9911 48.2169C21.963 48.2169 21.955 48.2046 21.955 48.1861C21.9523 48.1517 21.9523 48.1086 21.9416 48.0655C21.9202 47.9928 21.8708 47.9399 21.7264 47.9275C21.6569 47.9226 21.2143 47.9115 21.118 47.9115C21.0993 47.9115 21.0967 47.9275 21.0967 47.9497V48.2256C21.0967 48.3425 21.0913 48.6356 21.0967 48.7378C21.1033 48.9706 21.2237 49.0247 21.6194 49.0247C21.7237 49.0247 21.8855 49.0186 21.9858 48.9792C22.0834 48.9385 22.1261 48.8671 22.1542 48.7267C22.1636 48.6861 22.1716 48.6701 22.197 48.6701C22.2291 48.6701 22.2331 48.7132 22.2331 48.7526C22.2331 48.8277 22.205 49.0641 22.1823 49.1306C22.1542 49.2218 22.1195 49.2218 21.9737 49.2218C21.6849 49.2218 21.4496 49.2181 21.2611 49.2107C21.0713 49.2058 20.9269 49.2008 20.8119 49.2008C20.7691 49.2008 20.6849 49.2058 20.5926 49.2058C20.499 49.2107 20.4014 49.2119 20.3225 49.2119C20.2757 49.2119 20.2503 49.1996 20.2503 49.1787C20.2503 49.1602 20.2624 49.1405 20.3132 49.1405C20.368 49.1405 20.4108 49.1343 20.4482 49.1294C20.5271 49.1134 20.5512 49.0469 20.5619 48.9447C20.5792 48.8006 20.5792 48.5285 20.5792 48.2108V47.6025L20.5779 47.6Z" fill="#58256F"/>
<path d="M22.7743 46.9397C22.6847 46.7488 22.6286 46.718 22.4868 46.6848C22.428 46.6737 22.3665 46.6737 22.3371 46.6737C22.3023 46.6737 22.293 46.6565 22.293 46.638C22.293 46.6084 22.3344 46.6047 22.3906 46.6047C22.5965 46.6047 22.8171 46.6134 22.9548 46.6134C23.0497 46.6134 23.2543 46.6047 23.4468 46.6047C23.4976 46.6047 23.5404 46.6134 23.5404 46.638C23.5404 46.6626 23.5136 46.6737 23.4775 46.6737C23.416 46.6737 23.3586 46.6774 23.3278 46.6983C23.3011 46.7131 23.2877 46.7328 23.2877 46.7648C23.2877 46.8116 23.3225 46.9028 23.3759 47.0271L24.0284 48.5713H24.0391C24.2089 48.2154 24.7036 47.1022 24.7985 46.8769C24.8159 46.8301 24.8333 46.7796 24.8333 46.7488C24.8333 46.7131 24.8145 46.702 24.7798 46.6873C24.737 46.6762 24.6742 46.6725 24.6274 46.6725C24.5926 46.6725 24.5605 46.6614 24.5605 46.6368C24.5605 46.6121 24.5953 46.6035 24.6701 46.6035C24.8653 46.6035 25.0365 46.6121 25.0873 46.6121C25.1501 46.6121 25.3306 46.6035 25.4523 46.6035C25.5004 46.6035 25.5285 46.6121 25.5285 46.6368C25.5285 46.6614 25.5084 46.6725 25.4683 46.6725C25.4282 46.6725 25.344 46.6675 25.2785 46.7119C25.2317 46.7451 25.1782 46.7981 25.0753 47.016C24.9228 47.3411 24.8226 47.5271 24.6113 47.9507C24.3626 48.4543 24.1821 48.8311 24.0939 49.0035C23.9976 49.2043 23.9629 49.256 23.9107 49.256C23.8586 49.256 23.8278 49.2117 23.7516 49.0491L22.7756 46.9397H22.7743Z" fill="#58256F"/>
<path d="M25.9425 47.6C25.9425 47.0766 25.9425 46.9794 25.9385 46.8698C25.9291 46.7528 25.8931 46.7171 25.7714 46.6838C25.7406 46.6752 25.6738 46.6727 25.6176 46.6727C25.5775 46.6727 25.5508 46.6617 25.5508 46.637C25.5508 46.6124 25.5829 46.6038 25.639 46.6038C25.8422 46.6038 26.0883 46.6124 26.1979 46.6124C26.3222 46.6124 27.1819 46.6173 27.2554 46.6124C27.3263 46.6087 27.3878 46.5927 27.4186 46.5915C27.44 46.589 27.4627 46.5742 27.4814 46.5742C27.5028 46.5742 27.5068 46.5915 27.5068 46.6087C27.5068 46.6321 27.4867 46.674 27.4774 46.8316C27.472 46.871 27.4627 47.0188 27.456 47.0582C27.4506 47.0779 27.44 47.1173 27.4105 47.1173C27.3838 47.1173 27.3811 47.0976 27.3811 47.0729C27.3811 47.0495 27.3758 46.9892 27.353 46.9449C27.3236 46.8858 27.2915 46.8377 27.0977 46.8205C27.0322 46.8131 26.5696 46.8045 26.4907 46.8045C26.472 46.8045 26.4639 46.818 26.4639 46.8377V47.6862C26.4639 47.7108 26.4693 47.7256 26.4907 47.7256C26.5803 47.7256 27.0816 47.7256 27.1672 47.717C27.2621 47.712 27.3183 47.701 27.353 47.6628C27.3851 47.6394 27.3985 47.6197 27.4159 47.6197C27.4333 47.6197 27.4466 47.6357 27.4466 47.6591C27.4466 47.6776 27.4359 47.7354 27.4159 47.9091C27.4065 47.978 27.3985 48.116 27.3985 48.1406C27.3985 48.1652 27.3945 48.2169 27.3584 48.2169C27.3317 48.2169 27.3236 48.2046 27.3236 48.1861C27.3183 48.1517 27.3183 48.1086 27.3103 48.0655C27.2875 47.9928 27.2394 47.9399 27.0937 47.9275C27.0228 47.9226 26.5829 47.9115 26.4867 47.9115C26.4693 47.9115 26.4639 47.9275 26.4639 47.9497V48.2256C26.4639 48.3425 26.4599 48.6356 26.4639 48.7378C26.472 48.9706 26.5923 49.0247 26.988 49.0247C27.0897 49.0247 27.2514 49.0186 27.3517 48.9792C27.4493 48.9385 27.4934 48.8671 27.5188 48.7267C27.5282 48.6861 27.5376 48.6701 27.5643 48.6701C27.595 48.6701 27.6004 48.7132 27.6004 48.7526C27.6004 48.8277 27.5683 49.0641 27.5469 49.1306C27.5188 49.2218 27.4867 49.2218 27.3383 49.2218C27.0496 49.2218 26.8156 49.2181 26.6257 49.2107C26.4372 49.2058 26.2928 49.2008 26.1792 49.2008C26.1337 49.2008 26.0495 49.2058 25.9572 49.2058C25.8636 49.2107 25.7674 49.2119 25.6885 49.2119C25.6404 49.2119 25.6136 49.1996 25.6136 49.1787C25.6136 49.1602 25.627 49.1405 25.6738 49.1405C25.7313 49.1405 25.7754 49.1343 25.8128 49.1294C25.8917 49.1134 25.9131 49.0469 25.9265 48.9447C25.9439 48.8006 25.9439 48.5285 25.9439 48.2108V47.6025L25.9425 47.6Z" fill="#58256F"/>
<path d="M28.9098 48.21C28.9098 48.6496 28.9098 48.8713 28.9953 48.9365C29.0595 48.9895 29.2092 49.0092 29.5101 49.0092C29.716 49.0092 29.867 49.003 29.9646 48.9119C30.0128 48.8651 30.0529 48.7691 30.0609 48.7026C30.0649 48.6718 30.0729 48.6496 30.105 48.6496C30.1304 48.6496 30.1398 48.6878 30.1398 48.7284C30.1398 48.7691 30.1131 49.0277 30.0836 49.1286C30.0556 49.205 30.0382 49.2198 29.835 49.2198C29.5582 49.2198 29.3336 49.2161 29.1411 49.2087C28.9459 49.205 28.7814 49.2001 28.6236 49.2001C28.5809 49.2001 28.4966 49.205 28.4044 49.205C28.3121 49.2087 28.2159 49.2111 28.1343 49.2111C28.0888 49.2111 28.0594 49.2001 28.0594 49.1779C28.0594 49.1594 28.0728 49.1397 28.1236 49.1397C28.1798 49.1397 28.2239 49.1336 28.2586 49.1286C28.3402 49.1126 28.3616 49.0461 28.3763 48.9439C28.3923 48.7999 28.3923 48.5277 28.3923 48.21V47.6017C28.3923 47.0783 28.3923 46.9811 28.3883 46.8715C28.3803 46.7545 28.3455 46.7175 28.2212 46.6855C28.1918 46.6769 28.1437 46.6732 28.0929 46.6732C28.0501 46.6732 28.0273 46.6633 28.0273 46.6387C28.0273 46.6141 28.0554 46.6055 28.1129 46.6055C28.2921 46.6055 28.5381 46.6141 28.645 46.6141C28.7386 46.6141 29.0555 46.6055 29.2026 46.6055C29.2614 46.6055 29.2895 46.6141 29.2895 46.6387C29.2895 46.6633 29.2654 46.6732 29.2173 46.6732C29.1745 46.6732 29.1103 46.6781 29.0689 46.6855C28.9632 46.7028 28.9325 46.7483 28.9218 46.8715C28.9124 46.9811 28.9124 47.0783 28.9124 47.6017V48.21H28.9098Z" fill="#58256F"/>
<path d="M32.9438 47.9689C32.9438 47.2078 32.4451 46.7362 31.8194 46.7362C31.3889 46.7362 30.8835 46.9443 30.8835 47.7977C30.8835 48.5095 31.3234 49.0685 32.0534 49.0685C32.3248 49.0685 32.9438 48.9491 32.9438 47.9689ZM30.3086 47.9061C30.3086 47.3174 30.7592 46.5527 31.9357 46.5527C32.9131 46.5527 33.5201 47.0515 33.5201 47.8445C33.5201 48.6375 32.8943 49.2557 31.8943 49.2557C30.7672 49.2557 30.3086 48.5181 30.3086 47.9073" fill="#58256F"/>
<path d="M34.242 47.6017C34.242 47.0783 34.242 46.9811 34.2393 46.8715C34.2299 46.7545 34.1952 46.7188 34.0722 46.6855C34.0414 46.6769 33.9732 46.6744 33.9171 46.6744C33.877 46.6744 33.8516 46.6633 33.8516 46.6387C33.8516 46.6141 33.8823 46.6055 33.9385 46.6055C34.1417 46.6055 34.3864 46.6141 34.4987 46.6141C34.6551 46.6141 34.9639 46.6055 35.1404 46.6055C35.6271 46.6055 35.8009 46.7508 35.8637 46.8013C35.9466 46.8727 36.0576 47.0291 36.0576 47.2138C36.0576 47.7002 35.6338 48.0487 35.0829 48.0487C35.0656 48.0487 34.988 48.0487 34.9693 48.0462C34.9466 48.0462 34.9212 48.0339 34.9212 48.0093C34.9212 47.9797 34.9653 47.965 35.0495 47.965C35.2648 47.965 35.5683 47.7581 35.5683 47.4071C35.5683 47.2914 35.5562 47.0648 35.341 46.8912C35.1993 46.7816 35.0401 46.7656 34.9532 46.7656C34.8958 46.7656 34.8209 46.7668 34.7861 46.7816C34.7634 46.7902 34.7554 46.8087 34.7554 46.8431V48.2112C34.7554 48.5289 34.7554 48.8011 34.7741 48.9489C34.7861 49.0486 34.8075 49.1139 34.9225 49.1299C34.98 49.1348 35.0629 49.141 35.1204 49.141C35.1645 49.141 35.1832 49.1607 35.1832 49.1791C35.1832 49.2001 35.1511 49.2124 35.111 49.2124C34.853 49.2124 34.5789 49.2001 34.4786 49.2001C34.389 49.2001 34.1444 49.2124 33.9906 49.2124C33.9411 49.2124 33.9144 49.2001 33.9144 49.1791C33.9144 49.1607 33.9291 49.141 33.9759 49.141C34.0361 49.141 34.0789 49.1348 34.1123 49.1299C34.1938 49.1139 34.2166 49.0474 34.2299 48.9452C34.2446 48.8011 34.2446 48.5289 34.2446 48.2112V47.6029L34.242 47.6017Z" fill="#58256F"/>
<path d="M37.0085 46.6146C37.0152 46.5555 37.0513 46.5247 37.082 46.5247C37.1221 46.5247 37.1462 46.5407 37.2023 46.6343L38.2412 48.5553L39.28 46.6084C39.3108 46.5505 39.3455 46.5234 39.383 46.5234C39.411 46.5234 39.4552 46.5579 39.4699 46.633L39.8228 48.7597C39.8576 48.9789 39.8924 49.07 40.0114 49.102C40.1223 49.1303 40.1852 49.1353 40.2333 49.1353C40.2667 49.1353 40.2948 49.1464 40.2948 49.1685C40.2948 49.1956 40.248 49.2067 40.1919 49.2067C40.0956 49.2067 39.5447 49.1907 39.3897 49.1845C39.2974 49.1808 39.2747 49.1648 39.2747 49.1439C39.2747 49.1242 39.2934 49.1156 39.3188 49.107C39.3415 49.0971 39.3495 49.0577 39.3348 48.9567L39.1209 47.4655H39.1076L38.2773 49.0072C38.189 49.1722 38.1663 49.203 38.1222 49.203C38.0727 49.203 38.0299 49.1328 37.9671 49.0294C37.8735 48.8705 37.5687 48.341 37.5232 48.245C37.4925 48.1797 37.2612 47.7487 37.1355 47.5061H37.1221L36.9363 48.8533C36.9282 48.9124 36.9242 48.9567 36.9242 49.0158C36.9242 49.0749 36.9777 49.1057 37.0432 49.1143C37.1101 49.1279 37.1448 49.1328 37.1783 49.1328C37.2157 49.1328 37.2411 49.1476 37.2411 49.1661C37.2411 49.1993 37.205 49.2042 37.1462 49.2042C36.9844 49.2042 36.8093 49.1932 36.7397 49.1932C36.6649 49.1932 36.479 49.2042 36.356 49.2042C36.3159 49.2042 36.2852 49.1993 36.2852 49.1661C36.2852 49.1476 36.3052 49.1328 36.3453 49.1328C36.3774 49.1328 36.4028 49.1328 36.4643 49.123C36.5713 49.1143 36.606 48.9752 36.6261 48.8594L37.0085 46.6096V46.6146Z" fill="#58256F"/>
<path d="M40.9295 47.6C40.9295 47.0766 40.9295 46.9794 40.9268 46.8698C40.9174 46.7528 40.8813 46.7171 40.757 46.6838C40.7276 46.6752 40.6607 46.6727 40.6032 46.6727C40.5631 46.6727 40.5391 46.6617 40.5391 46.637C40.5391 46.6124 40.5671 46.6038 40.626 46.6038C40.8292 46.6038 41.0752 46.6124 41.1848 46.6124C41.3092 46.6124 42.1689 46.6173 42.2411 46.6124C42.3133 46.6087 42.3748 46.5927 42.4055 46.5915C42.4269 46.589 42.4496 46.5742 42.4657 46.5742C42.4911 46.5742 42.4924 46.5915 42.4924 46.6087C42.4924 46.6321 42.471 46.674 42.463 46.8316C42.4576 46.871 42.4496 47.0188 42.4403 47.0582C42.4363 47.0779 42.4269 47.1173 42.3975 47.1173C42.3707 47.1173 42.3667 47.0976 42.3667 47.0729C42.3667 47.0495 42.3614 46.9892 42.34 46.9449C42.3079 46.8858 42.2772 46.8377 42.0846 46.8205C42.0178 46.8131 41.5565 46.8045 41.4763 46.8045C41.4589 46.8045 41.4496 46.818 41.4496 46.8377V47.6862C41.4496 47.7108 41.4536 47.7256 41.4763 47.7256C41.5645 47.7256 42.0672 47.7256 42.1555 47.717C42.2477 47.712 42.3052 47.701 42.34 47.6628C42.3707 47.6394 42.3828 47.6197 42.4015 47.6197C42.4189 47.6197 42.4322 47.6357 42.4322 47.6591C42.4322 47.6776 42.4229 47.7354 42.4015 47.9091C42.3948 47.978 42.3828 48.116 42.3828 48.1406C42.3828 48.1652 42.3788 48.2169 42.3427 48.2169C42.3159 48.2169 42.3079 48.2046 42.3079 48.1861C42.3052 48.1517 42.3052 48.1086 42.2959 48.0655C42.2745 47.9928 42.2263 47.9399 42.0793 47.9275C42.0098 47.9226 41.5685 47.9115 41.4723 47.9115C41.4536 47.9115 41.4509 47.9275 41.4509 47.9497V48.2256C41.4509 48.3425 41.4482 48.6356 41.4509 48.7378C41.4603 48.9706 41.5792 49.0247 41.9763 49.0247C42.0766 49.0247 42.2397 49.0186 42.3413 48.9792C42.4389 48.9385 42.4831 48.8671 42.5071 48.7267C42.5165 48.6861 42.5258 48.6701 42.5512 48.6701C42.582 48.6701 42.5873 48.7132 42.5873 48.7526C42.5873 48.8277 42.5539 49.0641 42.5325 49.1306C42.5058 49.2218 42.4724 49.2218 42.3253 49.2218C42.0352 49.2218 41.8025 49.2181 41.614 49.2107C41.4242 49.2058 41.2784 49.2008 41.1634 49.2008C41.1207 49.2008 41.0364 49.2058 40.9428 49.2058C40.8492 49.2107 40.7543 49.2119 40.6768 49.2119C40.626 49.2119 40.6006 49.1996 40.6006 49.1787C40.6006 49.1602 40.6139 49.1405 40.6621 49.1405C40.7196 49.1405 40.7623 49.1343 40.7998 49.1294C40.8787 49.1134 40.9027 49.0469 40.9134 48.9447C40.9308 48.8006 40.9308 48.5285 40.9308 48.2108V47.6025L40.9295 47.6Z" fill="#58256F"/>
<path d="M43.6183 48.7411C43.6264 49.0095 43.6758 49.092 43.7507 49.1129C43.8176 49.1326 43.8924 49.1388 43.9553 49.1388C43.9981 49.1388 44.0194 49.1536 44.0194 49.177C44.0194 49.2041 43.9847 49.2102 43.9339 49.2102C43.6825 49.2102 43.5007 49.1991 43.4312 49.1991C43.3964 49.1991 43.2106 49.2102 43.0127 49.2102C42.9605 49.2102 42.9258 49.2078 42.9258 49.177C42.9258 49.1536 42.9512 49.1388 42.9859 49.1388C43.0394 49.1388 43.1089 49.1326 43.1638 49.1203C43.2654 49.0969 43.2774 49.0033 43.2814 48.7029L43.3162 46.6624C43.3162 46.591 43.3429 46.543 43.383 46.543C43.4312 46.543 43.4846 46.5935 43.5488 46.6563C43.597 46.7031 44.1799 47.2486 44.7428 47.7547C45.0088 47.9948 45.5236 48.4825 45.5797 48.5305H45.5984L45.5583 46.9974C45.5543 46.788 45.5169 46.724 45.426 46.6932C45.3685 46.6735 45.2762 46.6735 45.2241 46.6735C45.1759 46.6735 45.1626 46.6563 45.1626 46.6378C45.1626 46.6082 45.2013 46.6033 45.2588 46.6033C45.4607 46.6033 45.668 46.6119 45.7495 46.6119C45.795 46.6119 45.9407 46.6033 46.1292 46.6033C46.184 46.6033 46.2175 46.6082 46.2175 46.6378C46.2175 46.6563 46.1947 46.6735 46.1506 46.6735C46.1105 46.6735 46.0784 46.6735 46.0316 46.6858C45.9273 46.7141 45.8952 46.7745 45.8926 46.9715L45.8485 49.145C45.8485 49.2213 45.815 49.2521 45.7829 49.2521C45.7188 49.2521 45.6666 49.2176 45.6265 49.1819C45.3859 48.9726 44.9005 48.549 44.4954 48.1845C44.0729 47.8126 43.6625 47.3963 43.5889 47.3335H43.5742L43.6183 48.7423V48.7411Z" fill="#58256F"/>
<path d="M47.5937 46.815L47.0174 46.8286C46.7928 46.8298 46.7005 46.8544 46.6444 46.9308C46.6029 46.98 46.5882 47.0268 46.5775 47.0502C46.5668 47.0761 46.5602 47.0946 46.5334 47.0946C46.508 47.0946 46.5 47.0761 46.5 47.0367C46.5 46.9788 46.5735 46.6476 46.5829 46.6192C46.5896 46.5712 46.6029 46.5527 46.627 46.5527C46.6578 46.5527 46.6979 46.5811 46.7941 46.5909C46.9091 46.6069 47.0535 46.6106 47.1805 46.6106H48.7515C48.8758 46.6106 48.9587 46.602 49.0176 46.5909C49.0804 46.5872 49.1085 46.5761 49.1218 46.5761C49.1486 46.5761 49.1539 46.5983 49.1539 46.65C49.1539 46.7227 49.1432 46.9788 49.1432 47.0699C49.1392 47.1056 49.1299 47.1253 49.1085 47.1253C49.0791 47.1253 49.0684 47.1081 49.067 47.0564L49.0603 47.0207C49.051 46.9308 48.9507 46.8286 48.6044 46.8236L48.1151 46.8163V48.2102C48.1151 48.5267 48.1204 48.8001 48.1365 48.9466C48.1485 49.0464 48.1726 49.1116 48.2862 49.1289C48.341 49.1338 48.4266 49.1399 48.4828 49.1399C48.5269 49.1399 48.5456 49.1609 48.5456 49.1781C48.5456 49.2003 48.5148 49.2114 48.4707 49.2114C48.2154 49.2114 47.956 49.2003 47.8464 49.2003C47.7581 49.2003 47.4934 49.2114 47.341 49.2114C47.2915 49.2114 47.2648 49.2003 47.2648 49.1781C47.2648 49.1596 47.2795 49.1399 47.3249 49.1399C47.3811 49.1399 47.4319 49.135 47.464 49.1289C47.5415 49.1128 47.5642 49.0464 47.5776 48.9441C47.595 48.8001 47.595 48.5279 47.595 48.2115V46.8175L47.5937 46.815Z" fill="#58256F"/>
<path d="M52.387 47.7131C52.2934 47.6553 52.1931 47.6232 52.0206 47.6159C51.9431 47.6122 51.899 47.6122 51.8308 47.6122C51.8134 47.6122 51.804 47.6196 51.804 47.6393V48.6035C51.804 48.8694 51.8174 48.9396 51.9591 48.9914C52.0781 49.0332 52.1784 49.0394 52.2813 49.0394C52.4792 49.0394 52.8135 48.9396 52.8135 48.521C52.8135 48.2685 52.7225 47.9262 52.387 47.7107M51.804 47.3868C51.804 47.4188 51.8174 47.4262 51.8361 47.4311C51.8762 47.4398 51.9431 47.4435 52.0433 47.4435C52.1891 47.4435 52.2853 47.4275 52.3575 47.3683C52.4752 47.2821 52.5407 47.1356 52.5407 46.9361C52.5407 46.6652 52.3669 46.3093 51.9899 46.3093C51.927 46.3093 51.8883 46.3093 51.8455 46.3155C51.8134 46.3253 51.8027 46.3401 51.8027 46.3857V47.3868H51.804ZM51.2786 47.3191C51.2786 46.7009 51.2786 46.5864 51.2679 46.4583C51.2585 46.3204 51.2224 46.2551 51.0767 46.2244C51.0419 46.2182 50.9671 46.2157 50.9069 46.2157C50.8561 46.2157 50.832 46.2047 50.832 46.1776C50.832 46.1505 50.8614 46.1406 50.9283 46.1406C51.1623 46.1406 51.439 46.1529 51.5273 46.1529C51.7425 46.1529 51.915 46.1406 52.0647 46.1406C52.8629 46.1406 53.002 46.5347 53.002 46.7489C53.002 47.0802 52.7934 47.2809 52.5554 47.4582C52.9164 47.574 53.3563 47.8621 53.3563 48.335C53.3563 48.7709 52.9899 49.2204 52.1797 49.2204C52.1276 49.2204 51.9992 49.2118 51.8735 49.2056C51.7398 49.2007 51.6075 49.1945 51.542 49.1945C51.4925 49.1945 51.3949 49.1945 51.2906 49.2007C51.1877 49.2007 51.0754 49.2056 50.9871 49.2056C50.9296 49.2056 50.9002 49.1945 50.9002 49.1674C50.9002 49.1453 50.9176 49.1342 50.9697 49.1342C51.0366 49.1342 51.0887 49.1243 51.1288 49.117C51.2171 49.101 51.2385 49.0111 51.2559 48.8953C51.2799 48.7241 51.2799 48.4027 51.2799 48.0333V47.3191H51.2786Z" fill="#58256F"/>
<path d="M55.1622 48.1531C55.1796 48.1531 55.1836 48.1445 55.1796 48.1309L54.8132 47.2554C54.8106 47.2443 54.8079 47.2246 54.7959 47.2246C54.7838 47.2246 54.7785 47.2456 54.7745 47.2554L54.4001 48.1285C54.3921 48.1445 54.4001 48.1531 54.4121 48.1531H55.1622ZM54.3333 48.3428C54.3119 48.3428 54.3079 48.3464 54.2998 48.3698L54.0899 48.8304C54.0525 48.9154 54.0338 49.0016 54.0338 49.041C54.0338 49.1001 54.0685 49.1382 54.1875 49.1382H54.245C54.2918 49.1382 54.3025 49.153 54.3025 49.1764C54.3025 49.2035 54.2824 49.2084 54.2383 49.2084C54.114 49.2084 53.9308 49.1974 53.8092 49.1974C53.769 49.1974 53.5605 49.2084 53.3599 49.2084C53.3105 49.2084 53.2891 49.2035 53.2891 49.1764C53.2891 49.1518 53.3011 49.1382 53.3332 49.1382C53.3679 49.1382 53.4121 49.1333 53.4495 49.1333C53.6246 49.1112 53.6902 49.004 53.7704 48.8304L54.7838 46.6619C54.8266 46.5621 54.8574 46.5215 54.8961 46.5215C54.955 46.5215 54.9723 46.5535 55.0124 46.6311C55.1034 46.8232 55.7518 48.2344 55.9978 48.7602C56.1476 49.0693 56.2572 49.1136 56.328 49.1272C56.3869 49.1333 56.431 49.1382 56.4751 49.1382C56.5112 49.1382 56.5273 49.1481 56.5273 49.1764C56.5273 49.2047 56.5072 49.2084 56.3601 49.2084C56.2251 49.2084 55.943 49.2084 55.6141 49.2035C55.5459 49.1974 55.5031 49.1974 55.5031 49.1764C55.5031 49.1518 55.5111 49.1419 55.5486 49.1382C55.5767 49.1333 55.6021 49.1001 55.5847 49.0607L55.2852 48.3698C55.2745 48.3452 55.2638 48.3428 55.2464 48.3428H54.3333Z" fill="#58256F"/>
<path d="M57.1952 48.7411C57.2059 49.0095 57.2541 49.092 57.3289 49.1129C57.3918 49.1326 57.468 49.1388 57.5322 49.1388C57.5749 49.1388 57.5977 49.1536 57.5977 49.177C57.5977 49.2041 57.5616 49.2102 57.5094 49.2102C57.2581 49.2102 57.0776 49.1991 57.0067 49.1991C56.9733 49.1991 56.7875 49.2102 56.5896 49.2102C56.5374 49.2102 56.5 49.2078 56.5 49.177C56.5 49.1536 56.5294 49.1388 56.5642 49.1388C56.6163 49.1388 56.6858 49.1326 56.7393 49.1203C56.8409 49.0969 56.8543 49.0033 56.8583 48.7029L56.8931 46.6624C56.8931 46.591 56.9198 46.543 56.9599 46.543C57.0081 46.543 57.0615 46.5935 57.1271 46.6563C57.1738 46.7031 57.7568 47.2486 58.3197 47.7547C58.5844 47.9948 59.0991 48.4825 59.1566 48.5305H59.1753L59.1352 46.9974C59.1312 46.788 59.0964 46.724 59.0029 46.6932C58.944 46.6735 58.8531 46.6735 58.801 46.6735C58.7515 46.6735 58.7368 46.6563 58.7368 46.6378C58.7368 46.6082 58.7782 46.6033 58.8357 46.6033C59.0376 46.6033 59.2462 46.6119 59.3291 46.6119C59.3745 46.6119 59.5176 46.6033 59.7075 46.6033C59.7609 46.6033 59.797 46.6082 59.797 46.6378C59.797 46.6563 59.773 46.6735 59.7288 46.6735C59.6887 46.6735 59.6593 46.6735 59.6098 46.6858C59.5042 46.7141 59.4748 46.7745 59.4681 46.9715L59.424 49.145C59.424 49.2213 59.3946 49.2521 59.3638 49.2521C59.297 49.2521 59.2449 49.2176 59.2061 49.1819C58.9641 48.9726 58.4788 48.549 58.075 48.1845C57.6525 47.8126 57.242 47.3963 57.1672 47.3335H57.1551L57.1966 48.7423L57.1952 48.7411Z" fill="#58256F"/>
<path d="M61.1589 47.7549H61.1763C61.3087 47.6256 61.8716 47.1158 61.9865 46.9976C62.0962 46.8843 62.1804 46.803 62.1804 46.7439C62.1804 46.7045 62.1644 46.6823 62.1283 46.6737C62.0922 46.6688 62.0734 46.6565 62.0734 46.638C62.0734 46.6121 62.0962 46.6047 62.135 46.6047C62.2205 46.6047 62.4304 46.6134 62.5374 46.6134C62.6537 46.6134 62.8703 46.6047 62.988 46.6047C63.0294 46.6047 63.0548 46.6134 63.0548 46.638C63.0548 46.6626 63.0347 46.6737 62.9987 46.6737C62.9412 46.6737 62.8436 46.6885 62.7727 46.7143C62.6497 46.755 62.5254 46.8301 62.3636 46.9717C62.2406 47.0776 61.6643 47.58 61.544 47.7044C61.6804 47.8682 62.4438 48.5972 62.5922 48.7252C62.7647 48.8669 62.9131 49.0171 63.1217 49.0934C63.2353 49.1402 63.3155 49.1402 63.357 49.1402C63.3891 49.1402 63.4131 49.155 63.4131 49.1784C63.4131 49.1993 63.3891 49.2104 63.3209 49.2104H62.9799C62.8663 49.2104 62.7928 49.2104 62.7099 49.2055C62.504 49.1895 62.3769 49.1144 62.2071 48.9826C62.0427 48.8472 61.298 48.048 61.2138 47.947L61.1737 47.8977H61.1563V48.2105C61.1563 48.527 61.1563 48.8004 61.1643 48.9469C61.1737 49.0466 61.2084 49.1119 61.306 49.1279C61.3595 49.1341 61.4464 49.139 61.4945 49.139C61.5239 49.139 61.5467 49.1587 61.5467 49.1772C61.5467 49.1981 61.5159 49.2092 61.4731 49.2092C61.2552 49.2092 60.9798 49.1981 60.8849 49.1981C60.7953 49.1981 60.5479 49.2092 60.3929 49.2092C60.3447 49.2092 60.3193 49.1981 60.3193 49.1772C60.3193 49.1587 60.33 49.139 60.3808 49.139C60.4383 49.139 60.4824 49.1341 60.5172 49.1279C60.5974 49.1119 60.6175 49.0454 60.6322 48.9432C60.6496 48.7991 60.6496 48.527 60.6496 48.2093V47.601C60.6496 47.0776 60.6495 46.9803 60.6442 46.8707C60.6375 46.7537 60.6014 46.7168 60.4771 46.6848C60.4477 46.6762 60.3822 46.6725 60.3233 46.6725C60.2846 46.6725 60.2578 46.6614 60.2578 46.6368C60.2578 46.6121 60.2886 46.6035 60.3447 46.6035C60.5479 46.6035 60.7953 46.6121 60.8875 46.6121C60.9798 46.6121 61.2552 46.6035 61.3849 46.6035C61.4424 46.6035 61.4705 46.6121 61.4705 46.6368C61.4705 46.6614 61.4464 46.6725 61.4157 46.6725C61.3769 46.6725 61.3541 46.6762 61.3047 46.6848C61.1991 46.702 61.1696 46.7476 61.1603 46.8707C61.1549 46.9791 61.1549 47.0776 61.1549 47.601V47.7549H61.1589Z" fill="#58256F"/>
<path d="M18.3823 19.8896C18.3823 13.82 14.2978 10.9089 10.5369 10.9089C6.77589 10.9089 3.78503 13.0195 3.78503 18.8331C3.78503 24.6466 7.7051 28.118 12.0878 28.118C14.2671 28.118 18.381 27.2412 18.381 19.8896M15.3567 28.7214C14.2671 29.0969 12.525 29.3703 11.081 29.3703C3.1045 29.3703 0 23.9287 0 19.4143C0 15.3248 3.18739 9.70703 11.1652 9.70703C17.6724 9.70703 22.1941 13.3471 22.1941 19.2123C22.1941 23.627 19.1725 26.4112 17.4558 27.4628L22.9295 30.0488C28.6759 32.7555 32.2978 33.0325 34.1482 33.0325C35.5667 33.0325 37.5789 32.8331 39.4587 32.1545C39.6218 32.1053 39.7595 32.0314 39.8678 32.0314C38.6766 32.8343 35.0747 34.4364 31.1533 34.4364C27.2319 34.4364 24.1274 33.4611 19.6351 31.0266L15.3581 28.7214H15.3567Z" fill="#58256F"/>
<path d="M55.7901 27.9866H53.2779C53.2779 27.9866 53.4758 27.6541 53.4758 25.9818V19.161C53.4758 19.161 54.3195 19.1462 54.8101 19.1746C55.8717 19.2214 59.7196 19.2004 59.7196 23.6335C59.7196 26.0225 58.2489 27.9866 55.7901 27.9866ZM53.4758 11.0854H54.6203C56.9654 11.0854 58.0296 13.0199 58.0296 14.9767C58.0296 16.2069 57.6192 17.1119 56.9119 17.639C56.4466 18.0146 55.8476 18.1192 54.9478 18.1192H53.4771V11.0854H53.4758ZM58.1072 18.219C59.7731 17.7092 60.8894 16.1514 60.8894 14.59C60.8894 12.4547 59.2369 10.0547 54.6109 10.0547H47.3711C47.9086 10.647 48.7562 10.5349 48.9755 10.5817C49.8739 10.7603 50.0932 11.296 50.1507 12.153C50.2028 12.9547 50.2029 14.787 50.2029 18.6081V26.6234C50.2029 27.1862 50.12 27.9583 49.3391 28.3819C48.9287 28.6011 48.4153 28.5444 47.9861 29.1195H55.7915C60.1621 29.1195 63.0741 26.8364 63.0741 23.6434C63.0741 20.257 60.6555 18.6463 58.1085 18.219" fill="#58256F"/>
<path d="M39.7203 26.2798C38.0865 27.5864 36.2307 28.1959 33.4511 28.1959C32.8227 28.1959 30.245 28.0088 30.245 28.0088C30.245 28.0088 30.4415 27.675 30.4415 26.0028V11.2418C30.4415 11.2418 31.9042 11.2381 31.955 11.2381C34.0808 11.2381 36.8872 11.541 39.3941 13.7489C40.5679 14.7796 42.0132 16.8361 42.0132 20.0292C42.0132 22.6151 41.4664 24.8994 39.7203 26.2798ZM43.02 12.919C40.2845 10.285 36.5102 10.0781 33.2198 10.0608C33.2252 10.0584 33.2305 10.0547 33.2305 10.0547H24.2031C24.7379 10.647 25.5869 10.5349 25.8035 10.583C26.7033 10.7615 27.0322 11.296 27.0322 12.1543C27.0322 12.6013 27.0255 26.6246 27.0255 26.6246C27.0255 27.1874 26.94 27.9583 26.1618 28.3831C25.7514 28.6023 25.2366 28.5457 24.8088 29.1195C26.3624 28.9323 28.5577 28.8732 31.0726 29.1195C32.1088 29.1922 32.5754 29.271 33.5567 29.271C38.6012 29.271 41.437 27.4829 42.6897 26.3045C44.2179 24.8773 45.6632 22.4637 45.6632 19.2965C45.6632 16.3115 44.3824 14.228 43.0186 12.919" fill="#58256F"/>
<path d="M62.2865 44.2786C62.1087 44.2786 61.9657 44.4079 61.9657 44.5729C61.9657 44.7379 62.1087 44.8672 62.2865 44.8672C62.4644 44.8672 62.6074 44.7342 62.6074 44.5729C62.6074 44.4116 62.4657 44.2786 62.2865 44.2786ZM7.38689 44.2786C7.20907 44.2786 7.06468 44.4079 7.06468 44.5729C7.06468 44.7379 7.20907 44.8672 7.38689 44.8672C7.56471 44.8672 7.70777 44.7342 7.70777 44.5729C7.70777 44.4116 7.56471 44.2786 7.38689 44.2786ZM6.67294 44.5729C6.67294 44.7354 6.52854 44.8672 6.34939 44.8672C6.17023 44.8672 6.02717 44.7342 6.02717 44.5729C6.02717 44.4116 6.17424 44.2786 6.34939 44.2786C6.52453 44.2786 6.67294 44.4079 6.67294 44.5729ZM59.8546 38.6399C59.6767 38.6399 59.535 38.7717 59.535 38.9367C59.535 39.1017 59.6767 39.2334 59.8546 39.2334C60.0324 39.2334 60.1768 39.1005 60.1768 38.9367C60.1768 38.7729 60.0337 38.6399 59.8546 38.6399ZM44.1623 38.6399C43.9858 38.6399 43.8387 38.7717 43.8387 38.9367C43.8387 39.1017 43.9858 39.2334 44.1623 39.2334C44.3387 39.2334 44.4831 39.1005 44.4831 38.9367C44.4831 38.7729 44.3387 38.6399 44.1623 38.6399ZM43.4483 38.9367C43.4483 39.1005 43.3039 39.2334 43.1261 39.2334C42.9483 39.2334 42.8052 39.1005 42.8052 38.9367C42.8052 38.7729 42.9496 38.6399 43.1261 38.6399C43.3026 38.6399 43.4483 38.7717 43.4483 38.9367ZM20.6392 38.6399C20.4614 38.6399 20.3156 38.7717 20.3156 38.9367C20.3156 39.1017 20.46 39.2334 20.6392 39.2334C20.8183 39.2334 20.9587 39.1005 20.9587 38.9367C20.9587 38.7729 20.817 38.6399 20.6392 38.6399ZM19.9239 38.9367C19.9239 39.1005 19.7795 39.2334 19.603 39.2334C19.4265 39.2334 19.2808 39.1005 19.2808 38.9367C19.2808 38.7729 19.4252 38.6399 19.603 38.6399C19.7808 38.6399 19.9239 38.7717 19.9239 38.9367ZM17.2232 38.6399C17.0467 38.6399 16.9023 38.7717 16.9023 38.9367C16.9023 39.1017 17.0467 39.2334 17.2232 39.2334C17.3996 39.2334 17.5454 39.1005 17.5454 38.9367C17.5454 38.7729 17.401 38.6399 17.2232 38.6399ZM2.27957 38.6399C2.10175 38.6399 1.9587 38.7717 1.9587 38.9367C1.9587 39.1017 2.10175 39.2334 2.27957 39.2334C2.4574 39.2334 2.60045 39.1005 2.60045 38.9367C2.60045 38.7729 2.45606 38.6399 2.27957 38.6399ZM1.56428 38.9367C1.56428 39.1005 1.42256 39.2334 1.2434 39.2334C1.06425 39.2334 0.921189 39.1005 0.921189 38.9367C0.921189 38.7729 1.06558 38.6399 1.2434 38.6399C1.42122 38.6399 1.56428 38.7717 1.56428 38.9367ZM50.4207 40.7395L50.1025 40.7776H49.3284V40.5917C49.3284 40.0794 49.553 39.8208 50.0036 39.8208C50.1507 39.8208 50.2977 39.8639 50.4287 39.9563L50.4368 39.9711L50.5237 39.8479L50.5143 39.8405C50.3204 39.6706 50.0958 39.5856 49.8498 39.5856C49.3003 39.5856 49.0209 39.8996 49.0209 40.5301V40.7764H48.573V41.0092H50.755L50.4221 40.7382L50.4207 40.7395ZM60.6715 43.3525C60.3519 43.3525 60.0899 43.2602 59.8973 43.0779C59.7155 43.2602 59.4708 43.3525 59.17 43.3525H53.1281C52.7952 43.3525 52.5399 43.2626 52.354 43.0779C52.1668 43.2626 51.9195 43.3525 51.5946 43.3525H48.1224C47.2922 43.3525 46.7547 42.7331 46.7547 41.7739C46.7547 41.3983 46.8389 41.0658 47.0007 40.7961L47.0167 40.7739H47.4606L47.4058 40.8454C47.2574 41.0498 47.1839 41.3035 47.1839 41.6175C47.1839 42.4154 47.5729 42.9154 48.2 42.9154H51.4088C51.8567 42.9154 52.0706 42.6814 52.0706 42.1999V39.7322L51.9395 38.8L52.6388 38.6387V42.1999C52.6388 42.6814 52.8567 42.9154 53.3046 42.9154H58.9548C59.4 42.9154 59.6192 42.6814 59.6192 42.1938V41.3182L59.4909 40.3848L60.1955 40.2223V42.2012C60.1955 42.6826 60.4094 42.9166 60.8466 42.9166H61.8146C62.2732 42.9166 62.4884 42.6863 62.4884 42.195V41.3047L62.3614 40.3848L63.0486 40.2223V42.3206C63.0486 42.9671 62.6596 43.3525 61.9991 43.3525H60.6701H60.6715ZM2.12582 40.5154C1.94132 40.5154 1.79024 40.5154 1.66456 40.524C1.36507 40.5301 1.11773 40.6373 0.907819 40.8441C0.692563 41.0572 0.588277 41.3145 0.588277 41.6286C0.598973 42.3711 0.866372 42.7307 1.41053 42.7307C1.64584 42.7307 1.89586 42.6925 2.16326 42.61L2.12582 40.5154ZM11.2909 40.8897C10.9286 40.8897 10.6505 41.0153 10.47 41.2714C10.2962 41.5017 10.2146 41.801 10.2146 42.195C10.2146 42.8784 10.5181 43.3378 10.9754 43.3378C11.3029 43.3378 11.5957 43.1949 11.8391 42.9129L11.8284 41.4599L11.7535 40.9562C11.5757 40.9106 11.4206 40.8897 11.2909 40.8897ZM10.7976 43.7971C10.351 43.7971 10.0208 43.5865 9.80819 43.1752C9.63705 43.2971 9.4365 43.3538 9.19317 43.3538H8.24391C7.91902 43.3538 7.66365 43.2639 7.47112 43.0792C7.28796 43.2614 7.04329 43.3538 6.74246 43.3538H3.22082C2.97615 43.3538 2.74886 43.2959 2.54697 43.1851C2.41327 43.1075 2.31835 43.0238 2.25417 42.9339C1.9948 43.0902 1.64985 43.1801 1.22602 43.1912C0.469285 43.1912 0 42.642 0 41.7542C0 41.2911 0.157765 40.9106 0.470622 40.6237C0.78749 40.338 1.20463 40.1952 1.71403 40.1952H2.06833L2.02822 39.8147L2.7502 39.6571V42.2024C2.7502 42.6839 2.96813 42.9178 3.41736 42.9178H6.52854C6.97777 42.9178 7.19303 42.6839 7.19303 42.1962V41.3207L7.06601 40.3873L7.77195 40.2247V42.2036C7.77195 42.6851 7.98587 42.9191 8.4244 42.9191H8.98861C9.40843 42.9191 9.61967 42.7233 9.63438 42.3243C9.66379 41.2246 10.3671 40.54 11.4634 40.54C11.8244 40.54 12.1506 40.5868 12.4327 40.6779L12.4715 40.6914L12.3966 41.4192V42.1987C12.3939 42.4573 12.4554 42.6482 12.5811 42.7652C12.6894 42.8698 12.8525 42.9203 13.0638 42.9203H16.3207C16.7699 42.9203 16.9892 42.6863 16.9892 42.1987V41.3232L16.8582 40.3897L17.5628 40.2272V42.2061C17.5628 42.6876 17.7767 42.9215 18.2165 42.9215H19.71C20.1605 42.9215 20.3785 42.6876 20.3785 42.1999V41.3244L20.2488 40.391L20.9534 40.2284V42.2073C20.9534 42.6888 21.17 42.9228 21.6072 42.9228H22.2957C22.7449 42.9228 22.9629 42.6888 22.9629 42.2012V39.7408L22.8345 38.8086L23.5391 38.6473V42.2086C23.5391 42.69 23.7517 42.924 24.1916 42.924H25.3828C25.8374 42.924 26.058 42.69 26.058 42.2024V39.7211L25.9297 38.8098L26.6169 38.6485V42.3292C26.6169 42.9757 26.2251 43.3612 25.5687 43.3612H24.0151C23.6915 43.3612 23.4335 43.2688 23.2423 43.0866C23.0605 43.2688 22.8131 43.3612 22.5163 43.3612H21.432C21.1098 43.3612 20.8518 43.2688 20.6566 43.0866C20.4747 43.2688 20.2301 43.3612 19.9306 43.3612H18.0427C17.7192 43.3612 17.4611 43.2688 17.2713 43.0866C17.0854 43.2688 16.8408 43.3612 16.5413 43.3612H12.8926C12.6092 43.3612 12.3605 43.2688 12.1252 43.0755C11.8043 43.5175 11.2896 43.8045 10.8016 43.8045M43.6649 40.3959C43.2157 40.3959 42.9977 40.6767 42.9977 41.253C42.9977 41.7529 43.1983 42.0017 43.6127 42.0017C43.9015 42.0017 44.1328 41.95 44.3053 41.8576C44.308 41.7923 44.3107 41.4685 44.3107 41.1976C44.3107 40.6594 44.1007 40.3959 43.6662 40.3959M38.5295 40.7666C37.6671 40.7666 36.8716 41.4968 36.1644 42.924L39.9267 42.9129V41.6975C39.9267 41.1163 39.4039 40.7666 38.5295 40.7666ZM27.8549 44.664L27.9138 44.6468C28.2975 44.5162 28.5796 44.3044 28.7775 44.0015C28.9165 43.7774 28.986 43.5409 28.986 43.2848V41.3269L28.8563 40.3934L29.5583 40.2309V42.2098C29.5583 42.6913 29.7789 42.9252 30.2281 42.9252H35.5306V39.7814L35.4344 38.9539L36.1817 38.8788L36.0962 39.7827L36.0413 42.2036C36.7419 40.9439 37.635 40.3109 38.698 40.3109C39.2301 40.3109 39.6539 40.4255 39.9895 40.6607C40.3358 40.8848 40.5069 41.1926 40.5069 41.5707V42.9142L43.2304 42.9252C43.9403 42.9252 44.2371 42.7356 44.2692 42.2492C44.0994 42.2972 43.8935 42.3218 43.6422 42.3218C42.844 42.3218 42.4362 41.9463 42.4362 41.2074C42.4362 40.8134 42.5846 40.5129 42.8721 40.3134C43.0846 40.1632 43.3427 40.0893 43.6408 40.0893C44.0366 40.0893 44.3481 40.1964 44.5674 40.4058C44.7706 40.6052 44.8682 40.8589 44.8682 41.1766V41.5399C44.8682 42.2381 44.7318 42.7097 44.4524 42.9868C44.1957 43.2368 43.7478 43.3624 43.1221 43.3624H30.0329C29.8471 43.3624 29.6893 43.3353 29.5529 43.2799C29.4754 44.1406 28.9767 44.696 28.0662 44.9275L28.0287 44.9398L27.8523 44.664H27.8549Z" fill="#58256F"/>
</svg>
